<svg width="60" height="40" viewBox="0 0 185 211" fill="none" xmlns="http://www.w3.org/2000/svg">
<path d="M73.366 88.5144H73.3646C70.4947 88.5146 67.7424 89.6525 65.7132 91.6778C63.6839 93.7032 62.544 96.45 62.5441 99.3141C62.5441 102.178 63.6843 104.925 65.7136 106.95C67.743 108.975 70.4954 110.113 73.3653 110.113C76.2352 110.113 78.9876 108.975 81.017 106.95C83.0464 104.925 84.1865 102.178 84.1866 99.3141C84.1867 96.45 83.0467 93.7032 81.0174 91.6778C78.9882 89.6525 76.2359 88.5146 73.366 88.5144ZM111.951 88.5144C109.588 88.3146 107.22 88.8314 105.156 89.9974C103.092 91.1633 101.429 92.9239 100.384 95.0488C99.3399 97.1736 98.9625 99.5638 99.3018 101.906C99.641 104.249 100.681 106.434 102.286 108.177C103.89 109.92 105.985 111.139 108.295 111.674C110.605 112.209 113.024 112.035 115.233 111.176C117.443 110.316 119.341 108.811 120.68 106.857C122.018 104.903 122.734 102.591 122.734 100.224C122.797 98.7488 122.568 97.2753 122.06 95.888C121.552 94.5008 120.776 93.227 119.774 92.1395C118.773 91.052 117.567 90.1721 116.224 89.5501C114.882 88.9281 113.43 88.5761 111.951 88.5144ZM163.328 0H21.6722C18.8192 0.00672656 15.9955 0.574229 13.3623 1.6701C10.7291 2.76597 8.33798 4.36874 6.3255 6.3869C4.31303 8.40505 2.7186 10.7991 1.63328 13.4322C0.547953 16.0653 -0.007014 18.8861 6.69141e-05 21.7333V164.369C-0.00689237 167.216 0.548163 170.037 1.63354 172.67C2.71891 175.303 4.31335 177.697 6.32581 179.715C8.33827 181.733 10.7293 183.336 13.3625 184.432C15.9956 185.528 18.8193 186.095 21.6722 186.102H141.551L135.948 166.584L149.479 179.139L162.271 190.955L185 211V21.7333C185.007 18.8861 184.452 16.0653 183.367 13.4322C182.281 10.7991 180.687 8.40505 178.674 6.3869C176.662 4.36874 174.271 2.76597 171.638 1.6701C169.004 0.574229 166.181 0.00672656 163.328 0ZM122.523 137.783C122.523 137.783 118.716 133.247 115.545 129.237C123.208 127.437 129.986 122.99 134.68 116.683C130.876 119.21 126.798 121.298 122.523 122.907C117.605 125.002 112.461 126.524 107.194 127.444C98.1403 129.107 88.8552 129.072 79.8147 127.339C74.5068 126.302 69.3049 124.783 64.2738 122.802C61.6221 121.784 59.0437 120.586 56.5567 119.215C56.2392 119.004 55.9231 118.898 55.6057 118.687C55.4466 118.609 55.3033 118.502 55.1828 118.371C53.2808 117.316 52.2219 116.578 52.2219 116.578C56.7466 122.752 63.2903 127.155 70.7224 129.026C67.552 133.036 63.6402 137.783 63.6402 137.783C57.3607 137.952 51.1358 136.577 45.5134 133.781C39.8911 130.985 35.0437 126.852 31.3979 121.747C31.7412 100.359 36.9461 79.3282 46.62 60.2402C55.1337 53.5673 65.5132 49.6967 76.3255 49.1627L77.3818 50.4292C67.2095 52.9412 57.7171 57.6598 49.58 64.2494C49.58 64.2494 51.9061 62.9835 55.8168 61.1899C63.416 57.728 71.5152 55.485 79.8154 54.5439C80.4073 54.421 81.0089 54.3502 81.6132 54.3323C88.697 53.4114 95.866 53.3408 102.967 54.122C114.134 55.3944 124.943 58.8348 134.787 64.2494C127.062 57.9743 118.09 53.4074 108.465 50.8509L109.944 49.1637C120.757 49.6973 131.136 53.568 139.65 60.2412C149.325 79.3287 154.53 100.359 154.873 121.747C151.198 126.848 146.329 130.975 140.691 133.77C135.053 136.564 128.816 137.942 122.523 137.783Z" fill="white"/>
</svg>
